<mxfile host="app.diagrams.net" modified="2022-11-23T23:41:19.717Z" agent="5.0 (Windows NT 10.0; Win64; x64) AppleWebKit/537.36 (KHTML, like Gecko) Chrome/107.0.0.0 Safari/537.36" etag="xMY80CQCC64YQJAJBj8B" version="20.6.0" type="github">
  <diagram id="k7u0d16nxODXAwBA18ap" name="Page-1">
    <mxGraphModel dx="1574" dy="1279" grid="1" gridSize="10" guides="1" tooltips="1" connect="1" arrows="1" fold="1" page="1" pageScale="1" pageWidth="3100" pageHeight="800" background="#B0E3E6" math="0" shadow="1">
      <root>
        <mxCell id="0" />
        <mxCell id="1" parent="0" />
        <mxCell id="Dvytjwll2a7Je-04yW_I-3" value="" style="endArrow=classic;html=1;rounded=1;strokeWidth=1;fontSize=20;exitX=0;exitY=0.25;exitDx=0;exitDy=0;strokeColor=#182E3E;fontColor=#1A1A1A;entryX=1;entryY=0.41;entryDx=0;entryDy=0;entryPerimeter=0;labelBackgroundColor=#B0E3E6;sketch=1;" edge="1" parent="1" source="kZEBZklhy5daoq9FYiR5-37" target="Dvytjwll2a7Je-04yW_I-166">
          <mxGeometry relative="1" as="geometry">
            <mxPoint x="1828" y="549" as="sourcePoint" />
            <mxPoint x="2281" y="889" as="targetPoint" />
            <Array as="points">
              <mxPoint x="2688" y="719" />
              <mxPoint x="2368" y="719" />
              <mxPoint x="2368" y="799" />
              <mxPoint x="2368" y="838" />
            </Array>
          </mxGeometry>
        </mxCell>
        <mxCell id="Dvytjwll2a7Je-04yW_I-4" value="Transfering Funds to Trader" style="edgeLabel;resizable=0;html=1;align=center;verticalAlign=middle;fontSize=20;fontColor=#1A1A1A;rounded=1;labelBackgroundColor=#B0E3E6;sketch=1;" connectable="0" vertex="1" parent="Dvytjwll2a7Je-04yW_I-3">
          <mxGeometry relative="1" as="geometry">
            <mxPoint x="81" as="offset" />
          </mxGeometry>
        </mxCell>
        <mxCell id="Dvytjwll2a7Je-04yW_I-396" style="edgeStyle=orthogonalEdgeStyle;rounded=0;orthogonalLoop=1;jettySize=auto;html=1;exitX=1;exitY=0.48;exitDx=0;exitDy=0;exitPerimeter=0;entryX=0.5;entryY=1;entryDx=0;entryDy=0;strokeColor=#00FF00;fontColor=#1A1A1A;strokeWidth=1;labelBackgroundColor=#B0E3E6;sketch=1;" edge="1" parent="1" source="Dvytjwll2a7Je-04yW_I-166" target="kZEBZklhy5daoq9FYiR5-37">
          <mxGeometry relative="1" as="geometry">
            <Array as="points">
              <mxPoint x="2361" y="897" />
              <mxPoint x="2361" y="952" />
              <mxPoint x="2824" y="952" />
            </Array>
          </mxGeometry>
        </mxCell>
        <mxCell id="Dvytjwll2a7Je-04yW_I-398" style="edgeStyle=orthogonalEdgeStyle;rounded=0;orthogonalLoop=1;jettySize=auto;html=1;exitX=1;exitY=0.87;exitDx=0;exitDy=0;exitPerimeter=0;entryX=1;entryY=0.5;entryDx=0;entryDy=0;strokeColor=#00FF00;fontColor=#1A1A1A;strokeWidth=1;labelBackgroundColor=#B0E3E6;sketch=1;" edge="1" parent="1" source="Dvytjwll2a7Je-04yW_I-166" target="Dvytjwll2a7Je-04yW_I-48">
          <mxGeometry relative="1" as="geometry">
            <Array as="points">
              <mxPoint x="2295" y="1229" />
              <mxPoint x="2295" y="1458" />
            </Array>
          </mxGeometry>
        </mxCell>
        <mxCell id="Dvytjwll2a7Je-04yW_I-400" style="edgeStyle=orthogonalEdgeStyle;rounded=0;orthogonalLoop=1;jettySize=auto;html=1;exitX=1;exitY=0.67;exitDx=0;exitDy=0;exitPerimeter=0;entryX=0.5;entryY=0;entryDx=0;entryDy=0;strokeColor=#00FF00;fontColor=#1A1A1A;strokeWidth=1;labelBackgroundColor=#B0E3E6;sketch=1;" edge="1" parent="1" source="Dvytjwll2a7Je-04yW_I-166" target="kZEBZklhy5daoq9FYiR5-35">
          <mxGeometry relative="1" as="geometry">
            <Array as="points">
              <mxPoint x="2301" y="1058" />
              <mxPoint x="2301" y="259" />
              <mxPoint x="576" y="259" />
            </Array>
          </mxGeometry>
        </mxCell>
        <mxCell id="Dvytjwll2a7Je-04yW_I-410" style="edgeStyle=orthogonalEdgeStyle;rounded=0;hachureGap=4;jiggle=2;orthogonalLoop=1;jettySize=auto;html=1;exitX=0.5;exitY=1;exitDx=0;exitDy=0;exitPerimeter=0;entryX=0.5;entryY=1;entryDx=0;entryDy=0;strokeColor=#CCFF99;fontFamily=Architects Daughter;fontSource=https%3A%2F%2Ffonts.googleapis.com%2Fcss%3Ffamily%3DArchitects%2BDaughter;fontSize=16;fontColor=#1A1A1A;sketch=1;" edge="1" parent="1" source="Dvytjwll2a7Je-04yW_I-166" target="Dvytjwll2a7Je-04yW_I-146">
          <mxGeometry relative="1" as="geometry">
            <Array as="points">
              <mxPoint x="1541" y="1359" />
              <mxPoint x="2330" y="1359" />
              <mxPoint x="2330" y="540" />
              <mxPoint x="2884" y="540" />
            </Array>
          </mxGeometry>
        </mxCell>
        <mxCell id="Dvytjwll2a7Je-04yW_I-166" value="" style="shape=process;whiteSpace=wrap;html=1;backgroundOutline=1;fillColor=#F08E81;points=[[0,0,0,0,0],[0,0.25,0,0,0],[0,0.5,0,0,0],[0,0.75,0,0,0],[0,1,0,0,0],[0.25,0,0,0,0],[0.25,1,0,0,0],[0.5,0,0,0,0],[0.5,1,0,0,0],[0.75,0,0,0,0],[0.75,1,0,0,0],[1,0,0,0,0],[1,0.08,0,0,0],[1,0.17,0,0,0],[1,0.25,0,0,0],[1,0.33,0,0,0],[1,0.41,0,0,0],[1,0.48,0,0,0],[1,0.5,0,0,0],[1,0.54,0,0,0],[1,0.6,0,0,0],[1,0.67,0,0,0],[1,0.73,0,0,0],[1,0.83,0,0,0],[1,0.87,0,0,0],[1,1,0,0,0]];strokeColor=none;fontColor=#1A1A1A;sketch=1;" vertex="1" parent="1">
          <mxGeometry x="861" y="489" width="1360" height="850" as="geometry" />
        </mxCell>
        <mxCell id="Dvytjwll2a7Je-04yW_I-377" style="edgeStyle=orthogonalEdgeStyle;rounded=0;orthogonalLoop=1;jettySize=auto;html=1;exitX=1;exitY=0.5;exitDx=0;exitDy=0;entryX=1;entryY=0.23;entryDx=0;entryDy=0;entryPerimeter=0;fontSize=18;fontColor=#1A1A1A;strokeWidth=5;strokeColor=#182E3E;labelBackgroundColor=#B0E3E6;sketch=1;" edge="1" parent="1" source="kZEBZklhy5daoq9FYiR5-35" target="Dvytjwll2a7Je-04yW_I-166">
          <mxGeometry relative="1" as="geometry">
            <Array as="points">
              <mxPoint x="2271" y="374" />
              <mxPoint x="2271" y="685" />
            </Array>
          </mxGeometry>
        </mxCell>
        <mxCell id="kZEBZklhy5daoq9FYiR5-35" value="&lt;font style=&quot;font-size: 31px;&quot;&gt;Asset A&lt;br&gt;for&lt;br&gt;Asset B&lt;br&gt;&lt;/font&gt;" style="shape=hexagon;perimeter=hexagonPerimeter2;whiteSpace=wrap;html=1;fixedSize=1;fillColor=#F08E81;strokeColor=#FFFFFF;gradientDirection=south;fontColor=#1A1A1A;rounded=1;sketch=1;" parent="1" vertex="1">
          <mxGeometry x="431" y="279" width="290" height="190" as="geometry" />
        </mxCell>
        <mxCell id="kZEBZklhy5daoq9FYiR5-37" value="&lt;font style=&quot;font-size: 45px;&quot;&gt;Asset B&lt;br&gt;for&lt;br&gt;Asset A&lt;/font&gt;" style="shape=hexagon;perimeter=hexagonPerimeter2;whiteSpace=wrap;html=1;fixedSize=1;fillColor=#F08E81;strokeColor=#FFFFFF;gradientDirection=north;fontColor=#1A1A1A;rounded=1;sketch=1;" parent="1" vertex="1">
          <mxGeometry x="2679" y="742" width="290" height="190" as="geometry" />
        </mxCell>
        <mxCell id="kZEBZklhy5daoq9FYiR5-43" value="" style="endArrow=classic;html=1;rounded=1;fontSize=29;entryX=1;entryY=0.41;entryDx=0;entryDy=0;exitX=0;exitY=0.5;exitDx=0;exitDy=0;strokeWidth=3;strokeColor=#182E3E;fontColor=#1A1A1A;entryPerimeter=0;labelBackgroundColor=#B0E3E6;sketch=1;" parent="1" source="kZEBZklhy5daoq9FYiR5-37" target="Dvytjwll2a7Je-04yW_I-166" edge="1">
          <mxGeometry relative="1" as="geometry">
            <mxPoint x="2468" y="1049" as="sourcePoint" />
            <mxPoint x="2251" y="853" as="targetPoint" />
          </mxGeometry>
        </mxCell>
        <mxCell id="kZEBZklhy5daoq9FYiR5-44" value="Placing Order&lt;br&gt;(Buying Ad)" style="edgeLabel;resizable=0;html=1;align=center;verticalAlign=middle;fontSize=29;fontColor=#1A1A1A;rounded=1;labelBackgroundColor=#B0E3E6;sketch=1;" parent="kZEBZklhy5daoq9FYiR5-43" connectable="0" vertex="1">
          <mxGeometry relative="1" as="geometry">
            <mxPoint x="32" as="offset" />
          </mxGeometry>
        </mxCell>
        <mxCell id="kZEBZklhy5daoq9FYiR5-45" value="Source" style="edgeLabel;resizable=0;html=1;align=left;verticalAlign=bottom;fontSize=20;fontColor=#1A1A1A;rounded=1;labelBackgroundColor=#B0E3E6;sketch=1;" parent="kZEBZklhy5daoq9FYiR5-43" connectable="0" vertex="1">
          <mxGeometry x="-1" relative="1" as="geometry">
            <mxPoint x="-70" y="-10" as="offset" />
          </mxGeometry>
        </mxCell>
        <mxCell id="Dvytjwll2a7Je-04yW_I-26" style="edgeStyle=orthogonalEdgeStyle;rounded=1;orthogonalLoop=1;jettySize=auto;html=1;exitX=1;exitY=0.5;exitDx=0;exitDy=0;entryX=0;entryY=0.5;entryDx=0;entryDy=0;strokeColor=#182E3E;strokeWidth=5;fontSize=31;fontColor=#1A1A1A;labelBackgroundColor=#B0E3E6;sketch=1;" edge="1" parent="1" source="Dvytjwll2a7Je-04yW_I-25" target="kZEBZklhy5daoq9FYiR5-35">
          <mxGeometry relative="1" as="geometry" />
        </mxCell>
        <mxCell id="Dvytjwll2a7Je-04yW_I-25" value="Trader" style="ellipse;whiteSpace=wrap;html=1;fontSize=31;fillColor=#F08E81;gradientDirection=radial;strokeColor=#FFFFFF;fontColor=#1A1A1A;rounded=1;sketch=1;" vertex="1" parent="1">
          <mxGeometry x="141" y="296.75" width="170" height="154.5" as="geometry" />
        </mxCell>
        <mxCell id="Dvytjwll2a7Je-04yW_I-380" style="edgeStyle=orthogonalEdgeStyle;rounded=0;orthogonalLoop=1;jettySize=auto;html=1;exitX=1;exitY=0.5;exitDx=0;exitDy=0;entryX=1;entryY=0.23;entryDx=0;entryDy=0;entryPerimeter=0;strokeColor=#182E3E;strokeWidth=5;fontSize=18;fontColor=#1A1A1A;labelBackgroundColor=#B0E3E6;sketch=1;" edge="1" parent="1" source="Dvytjwll2a7Je-04yW_I-27" target="Dvytjwll2a7Je-04yW_I-166">
          <mxGeometry relative="1" as="geometry">
            <Array as="points">
              <mxPoint x="791" y="1104" />
              <mxPoint x="791" y="389" />
              <mxPoint x="2271" y="389" />
              <mxPoint x="2271" y="685" />
            </Array>
          </mxGeometry>
        </mxCell>
        <mxCell id="Dvytjwll2a7Je-04yW_I-27" value="&lt;font style=&quot;font-size: 31px;&quot;&gt;Asset A&lt;br&gt;for&lt;br&gt;Asset B&lt;br&gt;&lt;/font&gt;" style="shape=hexagon;perimeter=hexagonPerimeter2;whiteSpace=wrap;html=1;fixedSize=1;fillColor=#F08E81;strokeColor=#FFFFFF;gradientDirection=south;fontColor=#1A1A1A;rounded=1;sketch=1;" vertex="1" parent="1">
          <mxGeometry x="431" y="1009" width="290" height="190" as="geometry" />
        </mxCell>
        <mxCell id="Dvytjwll2a7Je-04yW_I-32" style="edgeStyle=orthogonalEdgeStyle;rounded=1;orthogonalLoop=1;jettySize=auto;html=1;strokeColor=#182E3E;strokeWidth=5;fontSize=31;fontColor=#1A1A1A;exitX=1;exitY=0.5;exitDx=0;exitDy=0;labelBackgroundColor=#B0E3E6;sketch=1;" edge="1" parent="1" source="Dvytjwll2a7Je-04yW_I-33">
          <mxGeometry relative="1" as="geometry">
            <mxPoint x="310.9999999999977" y="1104" as="sourcePoint" />
            <mxPoint x="431" y="1104" as="targetPoint" />
          </mxGeometry>
        </mxCell>
        <mxCell id="Dvytjwll2a7Je-04yW_I-33" value="Plateform Trades" style="ellipse;whiteSpace=wrap;html=1;fontSize=31;fillColor=#F08E81;gradientDirection=radial;strokeColor=#FFFFFF;fontColor=#1A1A1A;rounded=1;sketch=1;" vertex="1" parent="1">
          <mxGeometry x="141" y="1026.75" width="170" height="154.5" as="geometry" />
        </mxCell>
        <mxCell id="Dvytjwll2a7Je-04yW_I-56" style="edgeStyle=orthogonalEdgeStyle;rounded=0;orthogonalLoop=1;jettySize=auto;html=1;exitX=0.625;exitY=0;exitDx=0;exitDy=0;entryX=0.625;entryY=1;entryDx=0;entryDy=0;strokeColor=#FFFFCC;fontColor=#1A1A1A;strokeWidth=2;labelBackgroundColor=#B0E3E6;sketch=1;" edge="1" parent="1" source="Dvytjwll2a7Je-04yW_I-48" target="Dvytjwll2a7Je-04yW_I-27">
          <mxGeometry relative="1" as="geometry" />
        </mxCell>
        <mxCell id="Dvytjwll2a7Je-04yW_I-48" value="&lt;font style=&quot;font-size: 31px;&quot;&gt;Asset A&lt;br&gt;for&lt;br&gt;Asset B&lt;br&gt;&lt;/font&gt;" style="shape=hexagon;perimeter=hexagonPerimeter2;whiteSpace=wrap;html=1;fixedSize=1;fillColor=#F08E81;strokeColor=#FFFFFF;gradientDirection=south;fontColor=#1A1A1A;rounded=1;sketch=1;" vertex="1" parent="1">
          <mxGeometry x="431" y="1363" width="290" height="190" as="geometry" />
        </mxCell>
        <mxCell id="Dvytjwll2a7Je-04yW_I-49" style="edgeStyle=orthogonalEdgeStyle;rounded=1;orthogonalLoop=1;jettySize=auto;html=1;strokeColor=#182E3E;strokeWidth=5;fontSize=31;fontColor=#1A1A1A;exitX=1;exitY=0.5;exitDx=0;exitDy=0;labelBackgroundColor=#B0E3E6;sketch=1;" edge="1" parent="1" source="Dvytjwll2a7Je-04yW_I-50">
          <mxGeometry relative="1" as="geometry">
            <mxPoint x="310.9999999999977" y="1458" as="sourcePoint" />
            <mxPoint x="430.99999999999955" y="1458" as="targetPoint" />
          </mxGeometry>
        </mxCell>
        <mxCell id="Dvytjwll2a7Je-04yW_I-50" value="Investments" style="ellipse;whiteSpace=wrap;html=1;fontSize=31;fillColor=#F08E81;gradientDirection=radial;strokeColor=#FFFFFF;fontColor=#1A1A1A;rounded=1;sketch=1;" vertex="1" parent="1">
          <mxGeometry x="141" y="1380.75" width="170" height="154.5" as="geometry" />
        </mxCell>
        <mxCell id="Dvytjwll2a7Je-04yW_I-51" value="Source" style="edgeLabel;resizable=0;html=1;align=left;verticalAlign=bottom;labelBackgroundColor=none;fontSize=20;fontColor=#1A1A1A;fillColor=#F08E81;gradientDirection=radial;rounded=1;sketch=1;" connectable="0" vertex="1" parent="1">
          <mxGeometry x="617.2499999999995" y="1359" as="geometry" />
        </mxCell>
        <mxCell id="Dvytjwll2a7Je-04yW_I-140" value="&lt;font style=&quot;font-size: 93px;&quot;&gt;PairCrypt-v1 Smart Contract Flow Chart&lt;/font&gt;" style="text;html=1;align=center;verticalAlign=middle;resizable=0;points=[];autosize=1;strokeColor=none;fillColor=none;fontSize=20;fontFamily=Architects Daughter;hachureGap=4;jiggle=2;fontSource=https%3A%2F%2Ffonts.googleapis.com%2Fcss%3Ffamily%3DArchitects%2BDaughter;fontStyle=4;fontColor=#1A1A1A;sketch=1;" vertex="1" parent="1">
          <mxGeometry x="795" y="63" width="1540" height="130" as="geometry" />
        </mxCell>
        <mxCell id="Dvytjwll2a7Je-04yW_I-148" style="edgeStyle=orthogonalEdgeStyle;rounded=0;orthogonalLoop=1;jettySize=auto;html=1;exitX=0;exitY=0.5;exitDx=0;exitDy=0;strokeColor=#182E3E;strokeWidth=4;fontColor=#1A1A1A;entryX=0.5;entryY=0;entryDx=0;entryDy=0;entryPerimeter=0;labelBackgroundColor=#B0E3E6;sketch=1;" edge="1" parent="1" source="Dvytjwll2a7Je-04yW_I-146" target="Dvytjwll2a7Je-04yW_I-166">
          <mxGeometry relative="1" as="geometry">
            <mxPoint x="2641" y="411.75" as="targetPoint" />
          </mxGeometry>
        </mxCell>
        <mxCell id="Dvytjwll2a7Je-04yW_I-146" value="Admin" style="ellipse;whiteSpace=wrap;html=1;fontSize=31;fillColor=#F08E81;gradientDirection=radial;strokeColor=#FFFFFF;fontColor=#1A1A1A;rounded=1;sketch=1;" vertex="1" parent="1">
          <mxGeometry x="2799" y="334.5" width="170" height="154.5" as="geometry" />
        </mxCell>
        <mxCell id="Dvytjwll2a7Je-04yW_I-177" value="PearCrypt Core" style="swimlane;fontStyle=1;childLayout=stackLayout;horizontal=1;startSize=50;horizontalStack=0;resizeParent=1;resizeParentMax=0;resizeLast=0;collapsible=1;marginBottom=0;whiteSpace=wrap;html=1;fontSize=30;fillColor=#F08E81;strokeColor=#FFFFFF;fontColor=#1A1A1A;sketch=1;" vertex="1" parent="1">
          <mxGeometry x="1800.9999999999998" y="532" width="240" height="540" as="geometry" />
        </mxCell>
        <mxCell id="Dvytjwll2a7Je-04yW_I-178" value="Tradeable Asset" style="text;strokeColor=none;fillColor=none;align=center;verticalAlign=middle;spacingLeft=4;spacingRight=4;overflow=hidden;points=[[0,0.5],[1,0.5]];portConstraint=eastwest;rotatable=0;whiteSpace=wrap;html=1;fontSize=25;fontColor=#1A1A1A;sketch=1;" vertex="1" parent="Dvytjwll2a7Je-04yW_I-177">
          <mxGeometry y="50" width="240" height="70" as="geometry" />
        </mxCell>
        <mxCell id="Dvytjwll2a7Je-04yW_I-182" value="Requirements" style="text;strokeColor=none;fillColor=none;align=center;verticalAlign=middle;spacingLeft=4;spacingRight=4;overflow=hidden;points=[[0,0.5],[1,0.5]];portConstraint=eastwest;rotatable=0;whiteSpace=wrap;html=1;fontSize=25;fontColor=#1A1A1A;sketch=1;" vertex="1" parent="Dvytjwll2a7Je-04yW_I-177">
          <mxGeometry y="120" width="240" height="70" as="geometry" />
        </mxCell>
        <mxCell id="Dvytjwll2a7Je-04yW_I-184" value="Trade Floor" style="text;strokeColor=none;fillColor=none;align=center;verticalAlign=middle;spacingLeft=4;spacingRight=4;overflow=hidden;points=[[0,0.5],[1,0.5]];portConstraint=eastwest;rotatable=0;whiteSpace=wrap;html=1;fontSize=25;fontColor=#1A1A1A;sketch=1;" vertex="1" parent="Dvytjwll2a7Je-04yW_I-177">
          <mxGeometry y="190" width="240" height="70" as="geometry" />
        </mxCell>
        <mxCell id="Dvytjwll2a7Je-04yW_I-185" value="Trade Return" style="text;strokeColor=none;fillColor=none;align=center;verticalAlign=middle;spacingLeft=4;spacingRight=4;overflow=hidden;points=[[0,0.5],[1,0.5]];portConstraint=eastwest;rotatable=0;whiteSpace=wrap;html=1;fontSize=25;fontColor=#1A1A1A;sketch=1;" vertex="1" parent="Dvytjwll2a7Je-04yW_I-177">
          <mxGeometry y="260" width="240" height="70" as="geometry" />
        </mxCell>
        <mxCell id="Dvytjwll2a7Je-04yW_I-186" value="Trade Rewards" style="text;strokeColor=none;fillColor=none;align=center;verticalAlign=middle;spacingLeft=4;spacingRight=4;overflow=hidden;points=[[0,0.5],[1,0.5]];portConstraint=eastwest;rotatable=0;whiteSpace=wrap;html=1;fontSize=25;fontColor=#1A1A1A;sketch=1;" vertex="1" parent="Dvytjwll2a7Je-04yW_I-177">
          <mxGeometry y="330" width="240" height="70" as="geometry" />
        </mxCell>
        <mxCell id="Dvytjwll2a7Je-04yW_I-187" value="Investment Return" style="text;strokeColor=none;fillColor=none;align=center;verticalAlign=middle;spacingLeft=4;spacingRight=4;overflow=hidden;points=[[0,0.5],[1,0.5]];portConstraint=eastwest;rotatable=0;whiteSpace=wrap;html=1;fontSize=25;fontColor=#1A1A1A;sketch=1;" vertex="1" parent="Dvytjwll2a7Je-04yW_I-177">
          <mxGeometry y="400" width="240" height="70" as="geometry" />
        </mxCell>
        <mxCell id="Dvytjwll2a7Je-04yW_I-188" value="Investment Rewards" style="text;strokeColor=none;fillColor=none;align=center;verticalAlign=middle;spacingLeft=4;spacingRight=4;overflow=hidden;points=[[0,0.5],[1,0.5]];portConstraint=eastwest;rotatable=0;whiteSpace=wrap;html=1;fontSize=25;fontColor=#1A1A1A;sketch=1;" vertex="1" parent="Dvytjwll2a7Je-04yW_I-177">
          <mxGeometry y="470" width="240" height="70" as="geometry" />
        </mxCell>
        <mxCell id="Dvytjwll2a7Je-04yW_I-409" style="edgeStyle=orthogonalEdgeStyle;rounded=0;hachureGap=4;jiggle=2;orthogonalLoop=1;jettySize=auto;html=1;exitX=0;exitY=0.57;exitDx=0;exitDy=0;exitPerimeter=0;entryX=0.5;entryY=1;entryDx=0;entryDy=0;entryPerimeter=0;strokeColor=#CCFF99;fontFamily=Architects Daughter;fontSource=https%3A%2F%2Ffonts.googleapis.com%2Fcss%3Ffamily%3DArchitects%2BDaughter;fontSize=16;fontColor=#1A1A1A;sketch=1;" edge="1" parent="1" source="Dvytjwll2a7Je-04yW_I-78" target="Dvytjwll2a7Je-04yW_I-166">
          <mxGeometry relative="1" as="geometry">
            <Array as="points">
              <mxPoint x="891" y="837" />
              <mxPoint x="891" y="1310" />
              <mxPoint x="1541" y="1310" />
            </Array>
          </mxGeometry>
        </mxCell>
        <mxCell id="Dvytjwll2a7Je-04yW_I-411" style="edgeStyle=orthogonalEdgeStyle;rounded=0;hachureGap=4;jiggle=2;orthogonalLoop=1;jettySize=auto;html=1;exitX=0;exitY=0.39;exitDx=0;exitDy=0;exitPerimeter=0;entryX=0.5;entryY=0;entryDx=0;entryDy=0;strokeColor=#FFFFCC;strokeWidth=1;fontFamily=Architects Daughter;fontSource=https%3A%2F%2Ffonts.googleapis.com%2Fcss%3Ffamily%3DArchitects%2BDaughter;fontSize=16;fontColor=#1A1A1A;sketch=1;" edge="1" parent="1" source="Dvytjwll2a7Je-04yW_I-78" target="Dvytjwll2a7Je-04yW_I-27">
          <mxGeometry relative="1" as="geometry" />
        </mxCell>
        <mxCell id="Dvytjwll2a7Je-04yW_I-425" style="edgeStyle=orthogonalEdgeStyle;rounded=0;hachureGap=4;jiggle=2;orthogonalLoop=1;jettySize=auto;html=1;exitX=0.99;exitY=0.07;exitDx=0;exitDy=0;exitPerimeter=0;entryX=0.25;entryY=0;entryDx=0;entryDy=0;strokeColor=#666600;fontFamily=Architects Daughter;fontSource=https%3A%2F%2Ffonts.googleapis.com%2Fcss%3Ffamily%3DArchitects%2BDaughter;fontSize=16;fontColor=#1A1A1A;sketch=1;" edge="1" parent="1" source="Dvytjwll2a7Je-04yW_I-78" target="Dvytjwll2a7Je-04yW_I-355">
          <mxGeometry relative="1" as="geometry" />
        </mxCell>
        <mxCell id="Dvytjwll2a7Je-04yW_I-426" style="edgeStyle=orthogonalEdgeStyle;rounded=0;hachureGap=4;jiggle=2;orthogonalLoop=1;jettySize=auto;html=1;exitX=1;exitY=0.19;exitDx=0;exitDy=0;exitPerimeter=0;entryX=0.5;entryY=0;entryDx=0;entryDy=0;strokeColor=#006666;fontFamily=Architects Daughter;fontSource=https%3A%2F%2Ffonts.googleapis.com%2Fcss%3Ffamily%3DArchitects%2BDaughter;fontSize=16;fontColor=#1A1A1A;sketch=1;" edge="1" parent="1" source="Dvytjwll2a7Je-04yW_I-78" target="Dvytjwll2a7Je-04yW_I-355">
          <mxGeometry relative="1" as="geometry">
            <Array as="points">
              <mxPoint x="1230" y="647" />
              <mxPoint x="1230" y="500" />
              <mxPoint x="1921" y="500" />
            </Array>
          </mxGeometry>
        </mxCell>
        <mxCell id="Dvytjwll2a7Je-04yW_I-427" style="edgeStyle=orthogonalEdgeStyle;rounded=0;hachureGap=4;jiggle=2;orthogonalLoop=1;jettySize=auto;html=1;exitX=0.14;exitY=0.99;exitDx=0;exitDy=0;exitPerimeter=0;entryX=1;entryY=0.5;entryDx=0;entryDy=0;strokeColor=#FF3333;fontFamily=Architects Daughter;fontSource=https%3A%2F%2Ffonts.googleapis.com%2Fcss%3Ffamily%3DArchitects%2BDaughter;fontSize=16;fontColor=#1A1A1A;fillColor=#e51400;sketch=1;" edge="1" parent="1" source="Dvytjwll2a7Je-04yW_I-78" target="Dvytjwll2a7Je-04yW_I-266">
          <mxGeometry relative="1" as="geometry">
            <Array as="points">
              <mxPoint x="946" y="1320" />
              <mxPoint x="2061" y="1320" />
              <mxPoint x="2061" y="1259" />
            </Array>
          </mxGeometry>
        </mxCell>
        <mxCell id="Dvytjwll2a7Je-04yW_I-78" value="" style="shape=cylinder3;whiteSpace=wrap;html=1;boundedLbl=1;backgroundOutline=1;size=15;strokeColor=#FFFFFF;fontSize=6;fontColor=#1A1A1A;fillColor=#F08E81;points=[[0,0.03,0,0,0],[0,0.11,0,0,0],[0,0.27,0,0,0],[0,0.39,0,0,0],[0,0.5,0,0,0],[0,0.57,0,0,0],[0,0.62,0,0,0],[0,0.74,0,0,0],[0,0.86,0,0,0],[0,0.97,0,0,0],[0.14,0.01,0,0,0],[0.14,0.99,0,0,0],[0.31,1,0,0,0],[0.5,0,0,0,0],[0.5,1,0,0,0],[0.68,1,0,0,0],[0.86,0.01,0,0,0],[0.86,0.99,0,0,0],[0.99,0.07,0,0,0],[0.99,0.11,0,0,0],[1,0.03,0,0,0],[1,0.19,0,0,0],[1,0.27,0,0,0],[1,0.39,0,0,0],[1,0.5,0,0,0],[1,0.62,0,0,0],[1,0.74,0,0,0],[1,0.86,0,0,0],[1,0.97,0,0,0]];sketch=1;" vertex="1" parent="1">
          <mxGeometry x="911" y="552" width="250" height="500" as="geometry" />
        </mxCell>
        <mxCell id="Dvytjwll2a7Je-04yW_I-135" value="" style="endArrow=none;html=1;rounded=0;entryX=1;entryY=0.27;entryDx=0;entryDy=0;entryPerimeter=0;exitX=0;exitY=0.27;exitDx=0;exitDy=0;exitPerimeter=0;strokeColor=#182E3E;dashed=1;fontColor=#1A1A1A;labelBackgroundColor=#B0E3E6;sketch=1;" edge="1" parent="1" source="Dvytjwll2a7Je-04yW_I-78" target="Dvytjwll2a7Je-04yW_I-78">
          <mxGeometry width="50" height="50" relative="1" as="geometry">
            <mxPoint x="1206" y="724" as="sourcePoint" />
            <mxPoint x="1256" y="674" as="targetPoint" />
          </mxGeometry>
        </mxCell>
        <mxCell id="Dvytjwll2a7Je-04yW_I-136" value="" style="endArrow=none;html=1;rounded=0;entryX=1;entryY=0.62;entryDx=0;entryDy=0;entryPerimeter=0;exitX=0;exitY=0.62;exitDx=0;exitDy=0;exitPerimeter=0;strokeColor=#182E3E;dashed=1;fontColor=#1A1A1A;labelBackgroundColor=#B0E3E6;sketch=1;" edge="1" parent="1" source="Dvytjwll2a7Je-04yW_I-78" target="Dvytjwll2a7Je-04yW_I-78">
          <mxGeometry width="50" height="50" relative="1" as="geometry">
            <mxPoint x="1216" y="754" as="sourcePoint" />
            <mxPoint x="1266" y="704" as="targetPoint" />
          </mxGeometry>
        </mxCell>
        <mxCell id="Dvytjwll2a7Je-04yW_I-137" value="" style="endArrow=none;html=1;rounded=0;exitX=0;exitY=0.11;exitDx=0;exitDy=0;exitPerimeter=0;strokeColor=#182E3E;dashed=1;entryX=0.99;entryY=0.11;entryDx=0;entryDy=0;entryPerimeter=0;fontColor=#1A1A1A;labelBackgroundColor=#B0E3E6;sketch=1;" edge="1" parent="1" source="Dvytjwll2a7Je-04yW_I-78" target="Dvytjwll2a7Je-04yW_I-78">
          <mxGeometry width="50" height="50" relative="1" as="geometry">
            <mxPoint x="1206" y="694" as="sourcePoint" />
            <mxPoint x="1161" y="629" as="targetPoint" />
          </mxGeometry>
        </mxCell>
        <mxCell id="Dvytjwll2a7Je-04yW_I-216" value="&lt;b&gt;&lt;font style=&quot;font-size: 24px;&quot;&gt;Treasury Fuel&lt;/font&gt;&lt;/b&gt;" style="swimlane;fontStyle=0;childLayout=stackLayout;horizontal=1;startSize=52;horizontalStack=0;resizeParent=1;resizeParentMax=0;resizeLast=0;collapsible=1;marginBottom=0;whiteSpace=wrap;html=1;strokeColor=#FFFFFF;fontFamily=Helvetica;fontSize=30;fontColor=#1A1A1A;fillColor=#F08E81;sketch=1;" vertex="1" parent="1">
          <mxGeometry x="1311" y="647" width="210" height="332" as="geometry" />
        </mxCell>
        <mxCell id="Dvytjwll2a7Je-04yW_I-183" value="Service Fee" style="text;strokeColor=none;fillColor=none;align=center;verticalAlign=middle;spacingLeft=4;spacingRight=4;overflow=hidden;points=[[0,0.5],[1,0.5]];portConstraint=eastwest;rotatable=0;whiteSpace=wrap;html=1;fontSize=25;fontColor=#1A1A1A;sketch=1;" vertex="1" parent="Dvytjwll2a7Je-04yW_I-216">
          <mxGeometry y="52" width="210" height="70" as="geometry" />
        </mxCell>
        <mxCell id="Dvytjwll2a7Je-04yW_I-189" value="NFT Collection" style="text;strokeColor=none;fillColor=none;align=center;verticalAlign=middle;spacingLeft=4;spacingRight=4;overflow=hidden;points=[[0,0.5],[1,0.5]];portConstraint=eastwest;rotatable=0;whiteSpace=wrap;html=1;fontSize=25;fontColor=#1A1A1A;sketch=1;" vertex="1" parent="Dvytjwll2a7Je-04yW_I-216">
          <mxGeometry y="122" width="210" height="70" as="geometry" />
        </mxCell>
        <mxCell id="Dvytjwll2a7Je-04yW_I-195" value="Native Token" style="text;strokeColor=none;fillColor=none;align=center;verticalAlign=middle;spacingLeft=4;spacingRight=4;overflow=hidden;points=[[0,0.5],[1,0.5]];portConstraint=eastwest;rotatable=0;whiteSpace=wrap;html=1;fontSize=25;fontColor=#1A1A1A;sketch=1;" vertex="1" parent="Dvytjwll2a7Je-04yW_I-216">
          <mxGeometry y="192" width="210" height="70" as="geometry" />
        </mxCell>
        <mxCell id="Dvytjwll2a7Je-04yW_I-194" value="Stacked Returns" style="text;strokeColor=none;fillColor=none;align=center;verticalAlign=middle;spacingLeft=4;spacingRight=4;overflow=hidden;points=[[0,0.5],[1,0.5]];portConstraint=eastwest;rotatable=0;whiteSpace=wrap;html=1;fontSize=25;fontColor=#1A1A1A;sketch=1;" vertex="1" parent="Dvytjwll2a7Je-04yW_I-216">
          <mxGeometry y="262" width="210" height="70" as="geometry" />
        </mxCell>
        <mxCell id="Dvytjwll2a7Je-04yW_I-237" value="&lt;font color=&quot;#ff0000&quot;&gt;Reserve&lt;/font&gt;" style="text;html=1;strokeColor=none;fillColor=none;align=center;verticalAlign=middle;whiteSpace=wrap;rounded=0;fontSize=25;fontColor=#1A1A1A;sketch=1;" vertex="1" parent="1">
          <mxGeometry x="1001" y="932" width="60" height="30" as="geometry" />
        </mxCell>
        <mxCell id="Dvytjwll2a7Je-04yW_I-238" value="" style="endArrow=none;html=1;rounded=0;fontSize=25;fontColor=#1A1A1A;entryX=1;entryY=0.5;entryDx=0;entryDy=0;entryPerimeter=0;exitX=0;exitY=0.5;exitDx=0;exitDy=0;exitPerimeter=0;dashed=1;strokeColor=#182E3E;labelBackgroundColor=#B0E3E6;sketch=1;" edge="1" parent="1" source="Dvytjwll2a7Je-04yW_I-78" target="Dvytjwll2a7Je-04yW_I-78">
          <mxGeometry width="50" height="50" relative="1" as="geometry">
            <mxPoint x="971" y="909" as="sourcePoint" />
            <mxPoint x="1021" y="859" as="targetPoint" />
          </mxGeometry>
        </mxCell>
        <mxCell id="Dvytjwll2a7Je-04yW_I-243" style="edgeStyle=orthogonalEdgeStyle;rounded=0;orthogonalLoop=1;jettySize=auto;html=1;exitX=0;exitY=0.5;exitDx=0;exitDy=0;entryX=0.86;entryY=0.99;entryDx=0;entryDy=0;entryPerimeter=0;dashed=1;fontSize=25;fontColor=#1A1A1A;strokeColor=#182E3E;labelBackgroundColor=#B0E3E6;sketch=1;" edge="1" parent="1">
          <mxGeometry relative="1" as="geometry">
            <mxPoint x="1311" y="943" as="sourcePoint" />
            <mxPoint x="1126" y="1046.0000000000005" as="targetPoint" />
            <Array as="points">
              <mxPoint x="1291" y="943" />
              <mxPoint x="1291" y="1108" />
              <mxPoint x="1126" y="1108" />
            </Array>
          </mxGeometry>
        </mxCell>
        <mxCell id="Dvytjwll2a7Je-04yW_I-244" style="edgeStyle=orthogonalEdgeStyle;rounded=0;orthogonalLoop=1;jettySize=auto;html=1;exitX=0;exitY=0.5;exitDx=0;exitDy=0;entryX=0.68;entryY=1;entryDx=0;entryDy=0;entryPerimeter=0;dashed=1;fontSize=25;fontColor=#1A1A1A;strokeColor=#182E3E;labelBackgroundColor=#B0E3E6;sketch=1;" edge="1" parent="1">
          <mxGeometry relative="1" as="geometry">
            <mxPoint x="1311" y="873" as="sourcePoint" />
            <mxPoint x="1081" y="1051.0000000000005" as="targetPoint" />
            <Array as="points">
              <mxPoint x="1261" y="873" />
              <mxPoint x="1261" y="1148" />
              <mxPoint x="1081" y="1148" />
            </Array>
          </mxGeometry>
        </mxCell>
        <mxCell id="Dvytjwll2a7Je-04yW_I-245" style="edgeStyle=orthogonalEdgeStyle;rounded=0;orthogonalLoop=1;jettySize=auto;html=1;exitX=0;exitY=0.5;exitDx=0;exitDy=0;entryX=0.5;entryY=1;entryDx=0;entryDy=0;entryPerimeter=0;dashed=1;fontSize=25;fontColor=#1A1A1A;strokeColor=#182E3E;labelBackgroundColor=#B0E3E6;sketch=1;" edge="1" parent="1">
          <mxGeometry relative="1" as="geometry">
            <mxPoint x="1311" y="803" as="sourcePoint" />
            <mxPoint x="1036" y="1051.0000000000005" as="targetPoint" />
            <Array as="points">
              <mxPoint x="1231" y="803" />
              <mxPoint x="1231" y="1178" />
              <mxPoint x="1036" y="1178" />
            </Array>
          </mxGeometry>
        </mxCell>
        <mxCell id="Dvytjwll2a7Je-04yW_I-246" style="edgeStyle=orthogonalEdgeStyle;rounded=0;orthogonalLoop=1;jettySize=auto;html=1;exitX=0;exitY=0.5;exitDx=0;exitDy=0;entryX=0.31;entryY=1;entryDx=0;entryDy=0;entryPerimeter=0;dashed=1;fontSize=25;fontColor=#1A1A1A;strokeColor=#182E3E;labelBackgroundColor=#B0E3E6;sketch=1;" edge="1" parent="1">
          <mxGeometry relative="1" as="geometry">
            <mxPoint x="1311" y="733" as="sourcePoint" />
            <mxPoint x="988.5" y="1051.0000000000005" as="targetPoint" />
            <Array as="points">
              <mxPoint x="1201" y="733" />
              <mxPoint x="1201" y="1218" />
              <mxPoint x="988" y="1218" />
            </Array>
          </mxGeometry>
        </mxCell>
        <mxCell id="Dvytjwll2a7Je-04yW_I-375" style="edgeStyle=orthogonalEdgeStyle;rounded=0;orthogonalLoop=1;jettySize=auto;html=1;exitX=1;exitY=0.33;exitDx=0;exitDy=0;exitPerimeter=0;entryX=1;entryY=0.5;entryDx=0;entryDy=0;dashed=1;fontSize=18;fontColor=#1A1A1A;strokeColor=#182E3E;labelBackgroundColor=#B0E3E6;sketch=1;" edge="1" parent="1" source="Dvytjwll2a7Je-04yW_I-257" target="Dvytjwll2a7Je-04yW_I-349">
          <mxGeometry relative="1" as="geometry" />
        </mxCell>
        <mxCell id="Dvytjwll2a7Je-04yW_I-376" style="edgeStyle=orthogonalEdgeStyle;rounded=0;orthogonalLoop=1;jettySize=auto;html=1;exitX=1;exitY=0.67;exitDx=0;exitDy=0;exitPerimeter=0;entryX=1;entryY=0.5;entryDx=0;entryDy=0;dashed=1;fontSize=18;fontColor=#1A1A1A;strokeColor=#182E3E;labelBackgroundColor=#B0E3E6;sketch=1;" edge="1" parent="1" source="Dvytjwll2a7Je-04yW_I-257" target="Dvytjwll2a7Je-04yW_I-350">
          <mxGeometry relative="1" as="geometry" />
        </mxCell>
        <mxCell id="Dvytjwll2a7Je-04yW_I-257" value="" style="aspect=fixed;html=1;points=[[0,0.5,0,0,0],[1,0.33,0,0,0],[1,0.67,0,0,0]];align=center;image;fontSize=12;image=img/lib/mscae/Input.svg;fontColor=#1A1A1A;flipH=1;fillColor=#F08E81;strokeColor=#FFFFFF;labelBackgroundColor=#B0E3E6;sketch=1;" vertex="1" parent="1">
          <mxGeometry x="1651" y="747" width="50" height="45" as="geometry" />
        </mxCell>
        <mxCell id="Dvytjwll2a7Je-04yW_I-259" style="edgeStyle=orthogonalEdgeStyle;rounded=0;orthogonalLoop=1;jettySize=auto;html=1;exitX=0;exitY=0.5;exitDx=0;exitDy=0;dashed=1;fontSize=25;fontColor=#1A1A1A;strokeColor=#182E3E;labelBackgroundColor=#B0E3E6;sketch=1;" edge="1" parent="1" source="Dvytjwll2a7Je-04yW_I-182" target="Dvytjwll2a7Je-04yW_I-257">
          <mxGeometry relative="1" as="geometry">
            <Array as="points">
              <mxPoint x="1731" y="687" />
              <mxPoint x="1731" y="769" />
            </Array>
          </mxGeometry>
        </mxCell>
        <mxCell id="Dvytjwll2a7Je-04yW_I-268" style="edgeStyle=orthogonalEdgeStyle;rounded=0;orthogonalLoop=1;jettySize=auto;html=1;exitX=0;exitY=0.5;exitDx=0;exitDy=0;entryX=1;entryY=0.5;entryDx=0;entryDy=0;dashed=1;fontSize=25;fontColor=#1A1A1A;strokeColor=#182E3E;labelBackgroundColor=#B0E3E6;sketch=1;" edge="1" parent="1">
          <mxGeometry relative="1" as="geometry">
            <mxPoint x="1810.9999999999998" y="1258" as="sourcePoint" />
            <mxPoint x="1521" y="943" as="targetPoint" />
            <Array as="points">
              <mxPoint x="1551" y="1258" />
              <mxPoint x="1551" y="943" />
            </Array>
          </mxGeometry>
        </mxCell>
        <mxCell id="Dvytjwll2a7Je-04yW_I-266" value="Pool" style="shape=dataStorage;whiteSpace=wrap;html=1;fixedSize=1;fontSize=25;fontColor=#1A1A1A;fillColor=#F08E81;strokeColor=#FFFFFF;sketch=1;" vertex="1" parent="1">
          <mxGeometry x="1810.9999999999998" y="1204" width="230" height="110" as="geometry" />
        </mxCell>
        <mxCell id="Dvytjwll2a7Je-04yW_I-269" style="edgeStyle=orthogonalEdgeStyle;rounded=0;orthogonalLoop=1;jettySize=auto;html=1;exitX=0;exitY=0.5;exitDx=0;exitDy=0;entryX=1;entryY=0.5;entryDx=0;entryDy=0;dashed=1;fontSize=25;fontColor=#1A1A1A;strokeColor=#182E3E;labelBackgroundColor=#B0E3E6;sketch=1;" edge="1" parent="1">
          <mxGeometry relative="1" as="geometry">
            <mxPoint x="1810.9999999999998" y="1135.2499999999995" as="sourcePoint" />
            <mxPoint x="1521" y="873" as="targetPoint" />
            <Array as="points">
              <mxPoint x="1581" y="1135" />
              <mxPoint x="1581" y="873" />
            </Array>
          </mxGeometry>
        </mxCell>
        <mxCell id="Dvytjwll2a7Je-04yW_I-267" value="PearCrypt Token" style="shape=dataStorage;whiteSpace=wrap;html=1;fixedSize=1;fontSize=25;fontColor=#1A1A1A;fillColor=#F08E81;strokeColor=#FFFFFF;sketch=1;" vertex="1" parent="1">
          <mxGeometry x="1810.9999999999998" y="1081.25" width="230" height="110" as="geometry" />
        </mxCell>
        <mxCell id="Dvytjwll2a7Je-04yW_I-284" style="edgeStyle=orthogonalEdgeStyle;rounded=0;orthogonalLoop=1;jettySize=auto;html=1;exitX=0;exitY=0.5;exitDx=0;exitDy=0;exitPerimeter=0;dashed=1;fontSize=25;fontColor=#1A1A1A;strokeColor=#182E3E;labelBackgroundColor=#B0E3E6;sketch=1;" edge="1" parent="1" source="Dvytjwll2a7Je-04yW_I-281" target="Dvytjwll2a7Je-04yW_I-185">
          <mxGeometry relative="1" as="geometry">
            <Array as="points">
              <mxPoint x="1651" y="827" />
            </Array>
          </mxGeometry>
        </mxCell>
        <mxCell id="Dvytjwll2a7Je-04yW_I-285" style="edgeStyle=orthogonalEdgeStyle;rounded=0;orthogonalLoop=1;jettySize=auto;html=1;exitX=1;exitY=0.5;exitDx=0;exitDy=0;exitPerimeter=0;entryX=0;entryY=0.5;entryDx=0;entryDy=0;dashed=1;fontSize=25;fontColor=#1A1A1A;strokeColor=#182E3E;labelBackgroundColor=#B0E3E6;sketch=1;" edge="1" parent="1" source="Dvytjwll2a7Je-04yW_I-281" target="Dvytjwll2a7Je-04yW_I-187">
          <mxGeometry relative="1" as="geometry" />
        </mxCell>
        <mxCell id="Dvytjwll2a7Je-04yW_I-281" value="" style="strokeWidth=2;html=1;shape=mxgraph.flowchart.decision;whiteSpace=wrap;fontSize=25;fontColor=#1A1A1A;fillColor=#F08E81;strokeColor=#FFFFFF;sketch=1;" vertex="1" parent="1">
          <mxGeometry x="1651" y="889" width="100" height="100" as="geometry" />
        </mxCell>
        <mxCell id="Dvytjwll2a7Je-04yW_I-282" style="edgeStyle=orthogonalEdgeStyle;rounded=0;orthogonalLoop=1;jettySize=auto;html=1;exitX=0;exitY=0.5;exitDx=0;exitDy=0;entryX=0.5;entryY=1;entryDx=0;entryDy=0;entryPerimeter=0;dashed=1;fontSize=25;fontColor=#1A1A1A;strokeColor=#182E3E;labelBackgroundColor=#B0E3E6;sketch=1;" edge="1" parent="1">
          <mxGeometry relative="1" as="geometry">
            <mxPoint x="1800.9999999999998" y="1036" as="sourcePoint" />
            <mxPoint x="1701" y="988" as="targetPoint" />
          </mxGeometry>
        </mxCell>
        <mxCell id="Dvytjwll2a7Je-04yW_I-283" style="edgeStyle=orthogonalEdgeStyle;rounded=0;orthogonalLoop=1;jettySize=auto;html=1;exitX=0;exitY=0.5;exitDx=0;exitDy=0;entryX=0.5;entryY=0;entryDx=0;entryDy=0;entryPerimeter=0;dashed=1;fontSize=25;fontColor=#1A1A1A;strokeColor=#182E3E;labelBackgroundColor=#B0E3E6;sketch=1;" edge="1" parent="1" source="Dvytjwll2a7Je-04yW_I-186" target="Dvytjwll2a7Je-04yW_I-281">
          <mxGeometry relative="1" as="geometry" />
        </mxCell>
        <mxCell id="Dvytjwll2a7Je-04yW_I-345" style="edgeStyle=orthogonalEdgeStyle;rounded=0;orthogonalLoop=1;jettySize=auto;html=1;exitX=0.5;exitY=1;exitDx=0;exitDy=0;exitPerimeter=0;entryX=0.5;entryY=0;entryDx=0;entryDy=0;entryPerimeter=0;dashed=1;fontSize=18;fontColor=#1A1A1A;strokeColor=#182E3E;labelBackgroundColor=#B0E3E6;sketch=1;" edge="1" parent="1" source="Dvytjwll2a7Je-04yW_I-286" target="Dvytjwll2a7Je-04yW_I-344">
          <mxGeometry relative="1" as="geometry">
            <mxPoint x="2131" y="758" as="targetPoint" />
          </mxGeometry>
        </mxCell>
        <mxCell id="Dvytjwll2a7Je-04yW_I-286" value="" style="strokeWidth=2;html=1;shape=mxgraph.flowchart.decision;whiteSpace=wrap;fontSize=25;fontColor=#1A1A1A;fillColor=#F08E81;strokeColor=#FFFFFF;sketch=1;" vertex="1" parent="1">
          <mxGeometry x="2091" y="640" width="80" height="88" as="geometry" />
        </mxCell>
        <mxCell id="Dvytjwll2a7Je-04yW_I-287" style="edgeStyle=orthogonalEdgeStyle;rounded=0;orthogonalLoop=1;jettySize=auto;html=1;exitX=1;exitY=0.5;exitDx=0;exitDy=0;entryX=0.5;entryY=0;entryDx=0;entryDy=0;entryPerimeter=0;dashed=1;fontSize=25;fontColor=#1A1A1A;strokeColor=#182E3E;labelBackgroundColor=#B0E3E6;sketch=1;" edge="1" parent="1" target="Dvytjwll2a7Je-04yW_I-286">
          <mxGeometry relative="1" as="geometry">
            <mxPoint x="2040.9999999999998" y="616" as="sourcePoint" />
            <Array as="points">
              <mxPoint x="2131" y="616" />
            </Array>
          </mxGeometry>
        </mxCell>
        <mxCell id="Dvytjwll2a7Je-04yW_I-288" style="edgeStyle=orthogonalEdgeStyle;rounded=0;orthogonalLoop=1;jettySize=auto;html=1;exitX=1;exitY=0.5;exitDx=0;exitDy=0;entryX=0;entryY=0.5;entryDx=0;entryDy=0;entryPerimeter=0;dashed=1;fontSize=25;fontColor=#1A1A1A;strokeColor=#182E3E;labelBackgroundColor=#B0E3E6;sketch=1;" edge="1" parent="1" target="Dvytjwll2a7Je-04yW_I-286">
          <mxGeometry relative="1" as="geometry">
            <mxPoint x="2040.9999999999998" y="686" as="sourcePoint" />
          </mxGeometry>
        </mxCell>
        <mxCell id="Dvytjwll2a7Je-04yW_I-346" style="edgeStyle=orthogonalEdgeStyle;rounded=0;orthogonalLoop=1;jettySize=auto;html=1;exitX=0;exitY=0.5;exitDx=0;exitDy=0;exitPerimeter=0;entryX=1;entryY=0.5;entryDx=0;entryDy=0;dashed=1;fontSize=18;fontColor=#1A1A1A;strokeColor=#182E3E;labelBackgroundColor=#B0E3E6;sketch=1;" edge="1" parent="1" source="Dvytjwll2a7Je-04yW_I-344">
          <mxGeometry relative="1" as="geometry">
            <mxPoint x="2106" y="782" as="sourcePoint" />
            <mxPoint x="2040.9999999999998" y="756.0000000000005" as="targetPoint" />
            <Array as="points">
              <mxPoint x="2071" y="787" />
              <mxPoint x="2071" y="756" />
            </Array>
          </mxGeometry>
        </mxCell>
        <mxCell id="Dvytjwll2a7Je-04yW_I-369" style="edgeStyle=orthogonalEdgeStyle;rounded=0;orthogonalLoop=1;jettySize=auto;html=1;exitX=1;exitY=0.5;exitDx=0;exitDy=0;exitPerimeter=0;entryX=1;entryY=0.35;entryDx=0;entryDy=0;entryPerimeter=0;dashed=1;fontSize=18;fontColor=#1A1A1A;strokeColor=#182E3E;labelBackgroundColor=#B0E3E6;sketch=1;" edge="1" parent="1" source="Dvytjwll2a7Je-04yW_I-344" target="Dvytjwll2a7Je-04yW_I-166">
          <mxGeometry relative="1" as="geometry">
            <Array as="points">
              <mxPoint x="2211" y="787" />
            </Array>
          </mxGeometry>
        </mxCell>
        <mxCell id="Dvytjwll2a7Je-04yW_I-344" value="" style="strokeWidth=2;html=1;shape=mxgraph.flowchart.decision;whiteSpace=wrap;fontSize=18;fontColor=#1A1A1A;fillColor=#F08E81;strokeColor=#FFFFFF;sketch=1;" vertex="1" parent="1">
          <mxGeometry x="2106" y="763" width="50" height="48" as="geometry" />
        </mxCell>
        <mxCell id="Dvytjwll2a7Je-04yW_I-348" value="&lt;b&gt;&lt;font style=&quot;font-size: 24px;&quot;&gt;Treasury Fuel&lt;/font&gt;&lt;/b&gt;" style="swimlane;fontStyle=0;childLayout=stackLayout;horizontal=1;startSize=52;horizontalStack=0;resizeParent=1;resizeParentMax=0;resizeLast=0;collapsible=1;marginBottom=0;whiteSpace=wrap;html=1;strokeColor=#FFFFFF;fontFamily=Helvetica;fontSize=30;fontColor=#1A1A1A;fillColor=#F08E81;sketch=1;" vertex="1" parent="1">
          <mxGeometry x="1311" y="646" width="210" height="332" as="geometry" />
        </mxCell>
        <mxCell id="Dvytjwll2a7Je-04yW_I-349" value="Service Fee" style="text;strokeColor=none;fillColor=none;align=center;verticalAlign=middle;spacingLeft=4;spacingRight=4;overflow=hidden;points=[[0,0.5],[1,0.5]];portConstraint=eastwest;rotatable=0;whiteSpace=wrap;html=1;fontSize=25;fontColor=#1A1A1A;sketch=1;" vertex="1" parent="Dvytjwll2a7Je-04yW_I-348">
          <mxGeometry y="52" width="210" height="70" as="geometry" />
        </mxCell>
        <mxCell id="Dvytjwll2a7Je-04yW_I-350" value="NFT Collection" style="text;strokeColor=none;fillColor=none;align=center;verticalAlign=middle;spacingLeft=4;spacingRight=4;overflow=hidden;points=[[0,0.5],[1,0.5]];portConstraint=eastwest;rotatable=0;whiteSpace=wrap;html=1;fontSize=25;fontColor=#1A1A1A;sketch=1;" vertex="1" parent="Dvytjwll2a7Je-04yW_I-348">
          <mxGeometry y="122" width="210" height="70" as="geometry" />
        </mxCell>
        <mxCell id="Dvytjwll2a7Je-04yW_I-351" value="Native Token" style="text;strokeColor=none;fillColor=none;align=center;verticalAlign=middle;spacingLeft=4;spacingRight=4;overflow=hidden;points=[[0,0.5],[1,0.5]];portConstraint=eastwest;rotatable=0;whiteSpace=wrap;html=1;fontSize=25;fontColor=#1A1A1A;sketch=1;" vertex="1" parent="Dvytjwll2a7Je-04yW_I-348">
          <mxGeometry y="192" width="210" height="70" as="geometry" />
        </mxCell>
        <mxCell id="Dvytjwll2a7Je-04yW_I-352" value="Stacked Returns" style="text;strokeColor=none;fillColor=none;align=center;verticalAlign=middle;spacingLeft=4;spacingRight=4;overflow=hidden;points=[[0,0.5],[1,0.5]];portConstraint=eastwest;rotatable=0;whiteSpace=wrap;html=1;fontSize=25;fontColor=#1A1A1A;sketch=1;" vertex="1" parent="Dvytjwll2a7Je-04yW_I-348">
          <mxGeometry y="262" width="210" height="70" as="geometry" />
        </mxCell>
        <mxCell id="Dvytjwll2a7Je-04yW_I-355" value="PearCrypt Core" style="swimlane;fontStyle=1;childLayout=stackLayout;horizontal=1;startSize=50;horizontalStack=0;resizeParent=1;resizeParentMax=0;resizeLast=0;collapsible=1;marginBottom=0;whiteSpace=wrap;html=1;fontSize=30;fillColor=#F08E81;strokeColor=#FFFFFF;fontColor=#1A1A1A;sketch=1;" vertex="1" parent="1">
          <mxGeometry x="1800.9999999999998" y="531" width="240" height="540" as="geometry" />
        </mxCell>
        <mxCell id="Dvytjwll2a7Je-04yW_I-356" value="Tradeable Asset" style="text;strokeColor=none;fillColor=none;align=center;verticalAlign=middle;spacingLeft=4;spacingRight=4;overflow=hidden;points=[[0,0.33,0,0,0],[0,0.67,0,0,0],[1,0.5,0,0,0]];portConstraint=eastwest;rotatable=0;whiteSpace=wrap;html=1;fontSize=25;fontColor=#1A1A1A;sketch=1;" vertex="1" parent="Dvytjwll2a7Je-04yW_I-355">
          <mxGeometry y="50" width="240" height="70" as="geometry" />
        </mxCell>
        <mxCell id="Dvytjwll2a7Je-04yW_I-357" value="Requirements" style="text;strokeColor=none;fillColor=none;align=center;verticalAlign=middle;spacingLeft=4;spacingRight=4;overflow=hidden;points=[[0,0.5],[1,0.5]];portConstraint=eastwest;rotatable=0;whiteSpace=wrap;html=1;fontSize=25;fontColor=#1A1A1A;sketch=1;" vertex="1" parent="Dvytjwll2a7Je-04yW_I-355">
          <mxGeometry y="120" width="240" height="70" as="geometry" />
        </mxCell>
        <mxCell id="Dvytjwll2a7Je-04yW_I-358" value="Trade Floor" style="text;strokeColor=none;fillColor=none;align=center;verticalAlign=middle;spacingLeft=4;spacingRight=4;overflow=hidden;points=[[0,0.5],[1,0.5]];portConstraint=eastwest;rotatable=0;whiteSpace=wrap;html=1;fontSize=25;fontColor=#1A1A1A;sketch=1;" vertex="1" parent="Dvytjwll2a7Je-04yW_I-355">
          <mxGeometry y="190" width="240" height="70" as="geometry" />
        </mxCell>
        <mxCell id="Dvytjwll2a7Je-04yW_I-359" value="Trade Return" style="text;strokeColor=none;fillColor=none;align=center;verticalAlign=middle;spacingLeft=4;spacingRight=4;overflow=hidden;points=[[0,0.5],[1,0.5]];portConstraint=eastwest;rotatable=0;whiteSpace=wrap;html=1;fontSize=25;fontColor=#1A1A1A;sketch=1;" vertex="1" parent="Dvytjwll2a7Je-04yW_I-355">
          <mxGeometry y="260" width="240" height="70" as="geometry" />
        </mxCell>
        <mxCell id="Dvytjwll2a7Je-04yW_I-360" value="Trade Rewards" style="text;strokeColor=none;fillColor=none;align=center;verticalAlign=middle;spacingLeft=4;spacingRight=4;overflow=hidden;points=[[0,0.5],[1,0.5]];portConstraint=eastwest;rotatable=0;whiteSpace=wrap;html=1;fontSize=25;fontColor=#1A1A1A;sketch=1;" vertex="1" parent="Dvytjwll2a7Je-04yW_I-355">
          <mxGeometry y="330" width="240" height="70" as="geometry" />
        </mxCell>
        <mxCell id="Dvytjwll2a7Je-04yW_I-361" value="Investment Return" style="text;strokeColor=none;fillColor=none;align=center;verticalAlign=middle;spacingLeft=4;spacingRight=4;overflow=hidden;points=[[0,0.5],[1,0.5]];portConstraint=eastwest;rotatable=0;whiteSpace=wrap;html=1;fontSize=25;fontColor=#1A1A1A;sketch=1;" vertex="1" parent="Dvytjwll2a7Je-04yW_I-355">
          <mxGeometry y="400" width="240" height="70" as="geometry" />
        </mxCell>
        <mxCell id="Dvytjwll2a7Je-04yW_I-362" value="Investment Rewards" style="text;strokeColor=none;fillColor=none;align=center;verticalAlign=middle;spacingLeft=4;spacingRight=4;overflow=hidden;points=[[0,0.5],[1,0.5]];portConstraint=eastwest;rotatable=0;whiteSpace=wrap;html=1;fontSize=25;fontColor=#1A1A1A;sketch=1;" vertex="1" parent="Dvytjwll2a7Je-04yW_I-355">
          <mxGeometry y="470" width="240" height="70" as="geometry" />
        </mxCell>
        <mxCell id="Dvytjwll2a7Je-04yW_I-363" style="edgeStyle=orthogonalEdgeStyle;rounded=0;orthogonalLoop=1;jettySize=auto;html=1;exitX=0;exitY=0.5;exitDx=0;exitDy=0;dashed=1;fontSize=25;fontColor=#1A1A1A;strokeColor=#182E3E;labelBackgroundColor=#B0E3E6;sketch=1;" edge="1" source="Dvytjwll2a7Je-04yW_I-357" parent="1">
          <mxGeometry relative="1" as="geometry">
            <mxPoint x="1701" y="768" as="targetPoint" />
            <Array as="points">
              <mxPoint x="1731" y="686" />
              <mxPoint x="1731" y="768" />
            </Array>
          </mxGeometry>
        </mxCell>
        <mxCell id="Dvytjwll2a7Je-04yW_I-364" style="edgeStyle=orthogonalEdgeStyle;rounded=0;orthogonalLoop=1;jettySize=auto;html=1;exitX=0;exitY=0.5;exitDx=0;exitDy=0;exitPerimeter=0;dashed=1;fontSize=25;fontColor=#1A1A1A;strokeColor=#182E3E;labelBackgroundColor=#B0E3E6;sketch=1;" edge="1" target="Dvytjwll2a7Je-04yW_I-359" parent="1">
          <mxGeometry relative="1" as="geometry">
            <mxPoint x="1651" y="938" as="sourcePoint" />
            <Array as="points">
              <mxPoint x="1651" y="826" />
            </Array>
          </mxGeometry>
        </mxCell>
        <mxCell id="Dvytjwll2a7Je-04yW_I-374" style="edgeStyle=orthogonalEdgeStyle;rounded=0;orthogonalLoop=1;jettySize=auto;html=1;exitX=1;exitY=0.23;exitDx=0;exitDy=0;exitPerimeter=0;entryX=1;entryY=0.5;entryDx=0;entryDy=0;entryPerimeter=0;dashed=1;fontSize=18;fontColor=#1A1A1A;strokeColor=#182E3E;labelBackgroundColor=#B0E3E6;sketch=1;" edge="1" parent="1" source="Dvytjwll2a7Je-04yW_I-166" target="Dvytjwll2a7Je-04yW_I-286">
          <mxGeometry relative="1" as="geometry">
            <Array as="points">
              <mxPoint x="2201" y="685" />
            </Array>
          </mxGeometry>
        </mxCell>
        <mxCell id="Dvytjwll2a7Je-04yW_I-381" value="&lt;font style=&quot;font-size: 7px;&quot;&gt;Fail&lt;/font&gt;" style="text;html=1;strokeColor=none;fillColor=none;align=center;verticalAlign=middle;whiteSpace=wrap;rounded=0;fontColor=#1A1A1A;sketch=1;" vertex="1" parent="1">
          <mxGeometry x="2156" y="763" width="60" height="30" as="geometry" />
        </mxCell>
        <mxCell id="Dvytjwll2a7Je-04yW_I-384" value="&lt;font style=&quot;font-size: 7px;&quot;&gt;Success&lt;/font&gt;" style="text;html=1;strokeColor=none;fillColor=none;align=center;verticalAlign=middle;whiteSpace=wrap;rounded=0;fontColor=#1A1A1A;sketch=1;" vertex="1" parent="1">
          <mxGeometry x="2061" y="762" width="60" height="30" as="geometry" />
        </mxCell>
        <mxCell id="Dvytjwll2a7Je-04yW_I-395" style="edgeStyle=orthogonalEdgeStyle;rounded=0;orthogonalLoop=1;jettySize=auto;html=1;exitX=1;exitY=0.4;exitDx=0;exitDy=0;exitPerimeter=0;entryX=1;entryY=0.48;entryDx=0;entryDy=0;entryPerimeter=0;strokeColor=#182E3E;fontColor=#1A1A1A;labelBackgroundColor=#B0E3E6;sketch=1;" edge="1" parent="1" source="Dvytjwll2a7Je-04yW_I-390" target="Dvytjwll2a7Je-04yW_I-166">
          <mxGeometry relative="1" as="geometry">
            <Array as="points">
              <mxPoint x="2190" y="859" />
              <mxPoint x="2201" y="859" />
              <mxPoint x="2201" y="897" />
            </Array>
          </mxGeometry>
        </mxCell>
        <mxCell id="Dvytjwll2a7Je-04yW_I-399" style="edgeStyle=orthogonalEdgeStyle;rounded=0;orthogonalLoop=1;jettySize=auto;html=1;exitX=1;exitY=0.6;exitDx=0;exitDy=0;exitPerimeter=0;entryX=1;entryY=0.67;entryDx=0;entryDy=0;entryPerimeter=0;strokeColor=#182E3E;fontColor=#1A1A1A;labelBackgroundColor=#B0E3E6;sketch=1;" edge="1" parent="1" source="Dvytjwll2a7Je-04yW_I-390" target="Dvytjwll2a7Je-04yW_I-166">
          <mxGeometry relative="1" as="geometry" />
        </mxCell>
        <mxCell id="Dvytjwll2a7Je-04yW_I-390" value="" style="aspect=fixed;html=1;points=[[0,0.51,0,0,0],[1,0.2,0,0,0],[1,0.4,0,0,0],[1,0.6,0,0,0]];align=center;image;fontSize=12;image=img/lib/azure2/general/Input_Output.svg;strokeColor=#FFFFFF;fontColor=#1A1A1A;fillColor=#F08E81;labelBackgroundColor=#B0E3E6;sketch=1;" vertex="1" parent="1">
          <mxGeometry x="2106" y="836.75" width="64" height="55.00000000000001" as="geometry" />
        </mxCell>
        <mxCell id="Dvytjwll2a7Je-04yW_I-391" style="edgeStyle=orthogonalEdgeStyle;rounded=0;orthogonalLoop=1;jettySize=auto;html=1;exitX=1;exitY=0.5;exitDx=0;exitDy=0;entryX=0;entryY=0.5;entryDx=0;entryDy=0;entryPerimeter=0;strokeColor=#182E3E;fontColor=#1A1A1A;labelBackgroundColor=#B0E3E6;sketch=1;" edge="1" parent="1" source="Dvytjwll2a7Je-04yW_I-359" target="Dvytjwll2a7Je-04yW_I-390">
          <mxGeometry relative="1" as="geometry" />
        </mxCell>
        <mxCell id="Dvytjwll2a7Je-04yW_I-393" style="edgeStyle=orthogonalEdgeStyle;rounded=0;orthogonalLoop=1;jettySize=auto;html=1;exitX=1;exitY=0.41;exitDx=0;exitDy=0;exitPerimeter=0;entryX=1;entryY=0.2;entryDx=0;entryDy=0;entryPerimeter=0;strokeColor=#182E3E;fontColor=#1A1A1A;labelBackgroundColor=#B0E3E6;sketch=1;" edge="1" parent="1" source="Dvytjwll2a7Je-04yW_I-166" target="Dvytjwll2a7Je-04yW_I-390">
          <mxGeometry relative="1" as="geometry">
            <Array as="points">
              <mxPoint x="2201" y="837" />
              <mxPoint x="2201" y="848" />
            </Array>
          </mxGeometry>
        </mxCell>
        <mxCell id="Dvytjwll2a7Je-04yW_I-397" style="edgeStyle=orthogonalEdgeStyle;rounded=0;orthogonalLoop=1;jettySize=auto;html=1;exitX=1;exitY=0.5;exitDx=0;exitDy=0;entryX=1;entryY=0.87;entryDx=0;entryDy=0;entryPerimeter=0;strokeColor=#182E3E;fontColor=#1A1A1A;labelBackgroundColor=#B0E3E6;sketch=1;" edge="1" parent="1" source="Dvytjwll2a7Je-04yW_I-361" target="Dvytjwll2a7Je-04yW_I-166">
          <mxGeometry relative="1" as="geometry">
            <Array as="points">
              <mxPoint x="2101" y="966" />
              <mxPoint x="2101" y="1228" />
            </Array>
          </mxGeometry>
        </mxCell>
        <mxCell id="Dvytjwll2a7Je-04yW_I-404" style="edgeStyle=orthogonalEdgeStyle;rounded=0;orthogonalLoop=1;jettySize=auto;html=1;exitX=1;exitY=0.33;exitDx=0;exitDy=0;exitPerimeter=0;entryX=0;entryY=0.33;entryDx=0;entryDy=0;entryPerimeter=0;strokeColor=#182E3E;strokeWidth=3;fontColor=#1A1A1A;labelBackgroundColor=#B0E3E6;sketch=1;" edge="1" parent="1" source="Dvytjwll2a7Je-04yW_I-403" target="Dvytjwll2a7Je-04yW_I-356">
          <mxGeometry relative="1" as="geometry" />
        </mxCell>
        <mxCell id="Dvytjwll2a7Je-04yW_I-406" style="edgeStyle=orthogonalEdgeStyle;rounded=0;orthogonalLoop=1;jettySize=auto;html=1;exitX=1;exitY=0.67;exitDx=0;exitDy=0;exitPerimeter=0;entryX=0;entryY=0.67;entryDx=0;entryDy=0;entryPerimeter=0;strokeColor=#182E3E;strokeWidth=3;fontColor=#1A1A1A;labelBackgroundColor=#B0E3E6;sketch=1;" edge="1" parent="1" source="Dvytjwll2a7Je-04yW_I-403" target="Dvytjwll2a7Je-04yW_I-356">
          <mxGeometry relative="1" as="geometry" />
        </mxCell>
        <mxCell id="Dvytjwll2a7Je-04yW_I-403" value="" style="aspect=fixed;html=1;points=[[0,0.5,0,0,0],[1,0.33,0,0,0],[1,0.67,0,0,0]];align=center;image;fontSize=12;image=img/lib/azure2/general/Input_Output.svg;strokeColor=#FFFFFF;fontColor=#1A1A1A;fillColor=#F08E81;labelBackgroundColor=#B0E3E6;sketch=1;" vertex="1" parent="1">
          <mxGeometry x="1669" y="588.5" width="64" height="55.00000000000001" as="geometry" />
        </mxCell>
        <mxCell id="Dvytjwll2a7Je-04yW_I-407" style="edgeStyle=orthogonalEdgeStyle;rounded=0;orthogonalLoop=1;jettySize=auto;html=1;exitX=0.5;exitY=0;exitDx=0;exitDy=0;exitPerimeter=0;entryX=0;entryY=0.5;entryDx=0;entryDy=0;entryPerimeter=0;strokeColor=#182E3E;strokeWidth=4;fontColor=#1A1A1A;labelBackgroundColor=#B0E3E6;sketch=1;" edge="1" parent="1" source="Dvytjwll2a7Je-04yW_I-166" target="Dvytjwll2a7Je-04yW_I-403">
          <mxGeometry relative="1" as="geometry">
            <Array as="points">
              <mxPoint x="1541" y="616" />
            </Array>
          </mxGeometry>
        </mxCell>
        <mxCell id="Dvytjwll2a7Je-04yW_I-408" value="Receiving bought asset&lt;br&gt;(no rewards applied)" style="text;html=1;strokeColor=none;fillColor=none;align=center;verticalAlign=middle;whiteSpace=wrap;rounded=0;hachureGap=4;jiggle=2;fontFamily=Architects Daughter;fontSource=https%3A%2F%2Ffonts.googleapis.com%2Fcss%3Ffamily%3DArchitects%2BDaughter;fontSize=20;fontColor=#1A1A1A;labelBackgroundColor=#B0E3E6;sketch=1;" vertex="1" parent="1">
          <mxGeometry x="2460" y="932" width="200" height="30" as="geometry" />
        </mxCell>
        <mxCell id="Dvytjwll2a7Je-04yW_I-412" value="&lt;font style=&quot;font-size: 30px;&quot;&gt;Recycle&lt;/font&gt;" style="text;html=1;strokeColor=none;fillColor=none;align=center;verticalAlign=middle;whiteSpace=wrap;rounded=0;labelBackgroundColor=#B0E3E6;hachureGap=4;jiggle=2;fontFamily=Architects Daughter;fontSource=https%3A%2F%2Ffonts.googleapis.com%2Fcss%3Ffamily%3DArchitects%2BDaughter;fontSize=20;fontColor=#1A1A1A;sketch=1;" vertex="1" parent="1">
          <mxGeometry x="650" y="728" width="60" height="30" as="geometry" />
        </mxCell>
        <mxCell id="Dvytjwll2a7Je-04yW_I-415" value="&lt;font style=&quot;font-size: 23px;&quot;&gt;Investors Reward&lt;/font&gt;" style="text;html=1;strokeColor=none;fillColor=none;align=center;verticalAlign=middle;whiteSpace=wrap;rounded=0;labelBackgroundColor=none;hachureGap=4;jiggle=2;fontFamily=Architects Daughter;fontSource=https%3A%2F%2Ffonts.googleapis.com%2Fcss%3Ffamily%3DArchitects%2BDaughter;fontSize=30;fontColor=#006666;sketch=1;" vertex="1" parent="1">
          <mxGeometry x="960" y="630" width="170" height="30" as="geometry" />
        </mxCell>
        <mxCell id="Dvytjwll2a7Je-04yW_I-416" value="Traders Reward" style="text;html=1;strokeColor=none;fillColor=none;align=center;verticalAlign=middle;whiteSpace=wrap;rounded=0;labelBackgroundColor=none;hachureGap=4;jiggle=2;fontFamily=Architects Daughter;fontSource=https%3A%2F%2Ffonts.googleapis.com%2Fcss%3Ffamily%3DArchitects%2BDaughter;fontSize=23;fontColor=#666600;sketch=1;" vertex="1" parent="1">
          <mxGeometry x="970" y="580" width="150" height="30" as="geometry" />
        </mxCell>
        <mxCell id="Dvytjwll2a7Je-04yW_I-417" value="Network Reinstate" style="text;html=1;strokeColor=none;fillColor=none;align=center;verticalAlign=middle;whiteSpace=wrap;rounded=0;labelBackgroundColor=none;hachureGap=4;jiggle=2;fontFamily=Architects Daughter;fontSource=https%3A%2F%2Ffonts.googleapis.com%2Fcss%3Ffamily%3DArchitects%2BDaughter;fontSize=23;fontColor=#CCFF99;sketch=1;" vertex="1" parent="1">
          <mxGeometry x="941.5" y="817" width="207" height="30" as="geometry" />
        </mxCell>
        <mxCell id="Dvytjwll2a7Je-04yW_I-418" value="&lt;font color=&quot;#ffffcc&quot;&gt;Treasury&lt;/font&gt;" style="text;html=1;strokeColor=none;fillColor=none;align=center;verticalAlign=middle;whiteSpace=wrap;rounded=0;labelBackgroundColor=none;hachureGap=4;jiggle=2;fontFamily=Architects Daughter;fontSource=https%3A%2F%2Ffonts.googleapis.com%2Fcss%3Ffamily%3DArchitects%2BDaughter;fontSize=23;fontColor=#CCFF99;sketch=1;" vertex="1" parent="1">
          <mxGeometry x="1001" y="742" width="60" height="30" as="geometry" />
        </mxCell>
        <mxCell id="Dvytjwll2a7Je-04yW_I-421" value="Trading Assets&lt;br&gt;(Place Ads" style="text;html=1;strokeColor=none;fillColor=none;align=center;verticalAlign=middle;whiteSpace=wrap;rounded=0;labelBackgroundColor=#B0E3E6;hachureGap=4;jiggle=2;fontFamily=Architects Daughter;fontSource=https%3A%2F%2Ffonts.googleapis.com%2Fcss%3Ffamily%3DArchitects%2BDaughter;fontSize=23;fontColor=#000000;sketch=1;" vertex="1" parent="1">
          <mxGeometry x="1210" y="359" width="260" height="30" as="geometry" />
        </mxCell>
      </root>
    </mxGraphModel>
  </diagram>
</mxfile>
